<svg width="408" height="275" viewBox="0 0 408 275" fill="none" xmlns="http://www.w3.org/2000/svg">
<path d="M0.0859375 97.4895C12.574 144.323 43.5094 184.133 86.0868 208.163C128.664 232.192 179.396 238.472 227.121 225.622C274.847 212.772 315.657 181.843 340.573 139.641C365.49 97.4381 372.472 47.4183 359.984 0.585083L180.035 49.0372L0.0859375 97.4895Z" fill="url(#paint0_linear_14_700)"/>
<path d="M34.7334 41.9443H40.4V47.611H34.7334V41.9443Z" fill="white"/>
<path d="M7 41.9443H12.6666V47.611H7V41.9443Z" fill="white"/>
<path d="M66.7522 41L71.6597 43.8333L68.8263 48.7408L63.9189 45.9075L66.7522 41Z" fill="white"/>
<path d="M98.1966 41L101.03 45.9075L96.1225 48.7408L93.2891 43.8333L98.1966 41Z" fill="white"/>
<path d="M34.7334 68.5747H40.4V74.2414H34.7334V68.5747Z" fill="white"/>
<path d="M6.99951 68.5742H12.6662V74.2409H6.99951V68.5742Z" fill="white"/>
<path d="M66.8445 67.6299L71.7519 70.4632L68.9186 75.3707L64.0112 72.5373L66.8445 67.6299Z" fill="white"/>
<path d="M98.196 67.6299L101.029 72.5373L96.1219 75.3707L93.2886 70.4632L98.196 67.6299Z" fill="white"/>
<path d="M34.7334 95.2036H40.4V100.87H34.7334V95.2036Z" fill="white"/>
<path d="M6.99951 95.2036H12.6662V100.87H6.99951V95.2036Z" fill="white"/>
<path d="M66.8445 94.2593L71.7519 97.0926L68.9186 102L64.0112 99.1667L66.8445 94.2593Z" fill="white"/>
<path d="M98.196 94.2593L101.029 99.1667L96.1219 102L93.2886 97.0926L98.196 94.2593Z" fill="white"/>
<defs>
<linearGradient id="paint0_linear_14_700" x1="1.3279" y1="20.0522" x2="313.212" y2="-62.1883" gradientUnits="userSpaceOnUse">
<stop stop-color="#FFB147"/>
<stop offset="0.520264" stop-color="#FF6C63"/>
<stop offset="1" stop-color="#B86ADF"/>
</linearGradient>
</defs>
</svg>
