<svg width="408" height="275" viewBox="0 0 408 275" fill="none" xmlns="http://www.w3.org/2000/svg">
<path d="M0.0861549 97.4895C12.5742 144.323 43.5096 184.133 86.087 208.163C128.664 232.192 179.396 238.472 227.121 225.622C274.847 212.772 315.657 181.843 340.573 139.641C365.49 97.4381 372.472 47.4183 359.984 0.585047L180.035 49.0372L0.0861549 97.4895Z" fill="url(#paint0_linear_533_134)"/>
<path d="M34.7334 41.9443H40.4V47.611H34.7334V41.9443Z" fill="#010101"/>
<path d="M6.99976 41.9443H12.6664V47.611H6.99976V41.9443Z" fill="#010101"/>
<path d="M66.7522 41L71.6597 43.8333L68.8263 48.7408L63.9189 45.9075L66.7522 41Z" fill="#010101"/>
<path d="M98.1964 41L101.03 45.9075L96.1223 48.7408L93.2889 43.8333L98.1964 41Z" fill="#010101"/>
<path d="M34.7332 68.5747H40.3998V74.2414H34.7332V68.5747Z" fill="#010101"/>
<path d="M6.99951 68.5742H12.6662V74.2409H6.99951V68.5742Z" fill="#010101"/>
<path d="M66.8445 67.6299L71.7519 70.4632L68.9186 75.3707L64.0112 72.5373L66.8445 67.6299Z" fill="#010101"/>
<path d="M98.1959 67.6299L101.029 72.5373L96.1218 75.3707L93.2885 70.4632L98.1959 67.6299Z" fill="#010101"/>
<path d="M34.7332 95.2036H40.3998V100.87H34.7332V95.2036Z" fill="#010101"/>
<path d="M6.99951 95.2036H12.6662V100.87H6.99951V95.2036Z" fill="#010101"/>
<path d="M66.8445 94.2593L71.7519 97.0926L68.9186 102L64.0112 99.1667L66.8445 94.2593Z" fill="#010101"/>
<path d="M98.1959 94.2593L101.029 99.1667L96.1218 102L93.2885 97.0926L98.1959 94.2593Z" fill="#010101"/>
<defs>
<linearGradient id="paint0_linear_533_134" x1="1.32812" y1="20.0522" x2="313.212" y2="-62.1883" gradientUnits="userSpaceOnUse">
<stop stop-color="#FFB147"/>
<stop offset="0.520264" stop-color="#FF6C63"/>
<stop offset="1" stop-color="#B86ADF"/>
</linearGradient>
</defs>
</svg>
