<svg width="660" height="719" viewBox="0 0 660 719" fill="none" xmlns="http://www.w3.org/2000/svg">
<path d="M617.948 445.779L268.738 647.044C420.085 684.724 574.963 595.461 617.948 445.779Z" fill="url(#paint0_linear_544_166)"/>
<path d="M414.615 88.6769C260.742 47.4892 102.712 138.569 61.5073 292.189C58.5894 303.067 56.2109 313.914 54.7022 324.816L446.323 99.1076C436.231 95.1697 425.512 91.5936 414.615 88.6769Z" fill="url(#paint1_linear_544_166)"/>
<path d="M516.338 58.7548L124.544 284.563C114.663 350.557 128.371 415.797 160.097 470.652L660 182.535C628.274 127.68 578.53 83.2094 516.338 58.7548Z" fill="url(#paint2_linear_544_166)"/>
<path d="M540.12 251.628L40.2168 539.745C77.1998 603.69 138.608 653.837 215.678 674.551C217.001 674.907 218.324 675.263 219.526 675.409L568.159 474.475C568.512 473.154 568.865 471.832 569.339 470.72C589.694 393.856 577.103 315.573 540.12 251.628Z" fill="url(#paint3_linear_544_166)"/>
<rect x="534.252" y="527.51" width="3.05551" height="3.05551" fill="#141313"/>
<rect x="519.298" y="527.51" width="3.05551" height="3.05551" fill="#141313"/>
<rect x="504" y="527.51" width="3.05551" height="3.05551" fill="#141313"/>
<rect x="551.567" y="527" width="3.05551" height="3.05551" transform="rotate(30 551.567 527)" fill="#141313"/>
<rect x="568.472" y="527" width="3.05551" height="3.05551" transform="rotate(60 568.472 527)" fill="#141313"/>
<rect x="534.252" y="541.683" width="3.05551" height="3.05551" fill="#141313"/>
<rect x="519.298" y="541.683" width="3.05551" height="3.05551" fill="#141313"/>
<rect x="504" y="541.683" width="3.05551" height="3.05551" fill="#141313"/>
<rect x="551.567" y="541.174" width="3.05551" height="3.05551" transform="rotate(30 551.567 541.174)" fill="#141313"/>
<rect x="568.472" y="541.174" width="3.05551" height="3.05551" transform="rotate(60 568.472 541.174)" fill="#141313"/>
<rect x="534.252" y="555.857" width="3.05551" height="3.05551" fill="#141313"/>
<rect x="519.298" y="555.857" width="3.05551" height="3.05551" fill="#141313"/>
<rect x="504" y="555.857" width="3.05551" height="3.05551" fill="#141313"/>
<rect x="551.517" y="555.348" width="3.05551" height="3.05551" transform="rotate(30 551.517 555.348)" fill="#141313"/>
<rect x="568.472" y="555.348" width="3.05551" height="3.05551" transform="rotate(60 568.472 555.348)" fill="#141313"/>
<rect x="534.252" y="570.031" width="3.05551" height="3.05551" fill="#141313"/>
<rect x="519.298" y="570.031" width="3.05551" height="3.05551" fill="#141313"/>
<rect x="504" y="570.031" width="3.05551" height="3.05551" fill="#141313"/>
<rect x="551.567" y="569.521" width="3.05551" height="3.05551" transform="rotate(30 551.567 569.521)" fill="#141313"/>
<rect x="568.472" y="569.521" width="3.05551" height="3.05551" transform="rotate(60 568.472 569.521)" fill="#141313"/>
<rect x="534.252" y="584.205" width="3.05551" height="3.05551" fill="#141313"/>
<rect x="519.298" y="584.205" width="3.05551" height="3.05551" fill="#141313"/>
<rect x="504" y="584.205" width="3.05551" height="3.05551" fill="#141313"/>
<rect x="551.567" y="583.696" width="3.05551" height="3.05551" transform="rotate(30 551.567 583.696)" fill="#141313"/>
<rect x="568.472" y="583.696" width="3.05551" height="3.05551" transform="rotate(60 568.472 583.696)" fill="#141313"/>
<rect x="534.252" y="598.379" width="3.05551" height="3.05551" fill="#141313"/>
<rect x="519.298" y="598.379" width="3.05551" height="3.05551" fill="#141313"/>
<rect x="504" y="598.379" width="3.05551" height="3.05551" fill="#141313"/>
<rect x="551.517" y="597.87" width="3.05551" height="3.05551" transform="rotate(30 551.517 597.87)" fill="#141313"/>
<rect x="568.472" y="597.87" width="3.05551" height="3.05551" transform="rotate(60 568.472 597.87)" fill="#141313"/>
<rect x="534.252" y="612.553" width="3.05551" height="3.05551" fill="#141313"/>
<rect x="519.298" y="612.553" width="3.05551" height="3.05551" fill="#141313"/>
<rect x="504" y="612.553" width="3.05551" height="3.05551" fill="#141313"/>
<rect x="551.567" y="612.044" width="3.05551" height="3.05551" transform="rotate(30 551.567 612.044)" fill="#141313"/>
<rect x="568.472" y="612.044" width="3.05551" height="3.05551" transform="rotate(60 568.472 612.044)" fill="#141313"/>
<rect x="534.252" y="626.726" width="3.05551" height="3.05551" fill="#141313"/>
<rect x="519.298" y="626.726" width="3.05551" height="3.05551" fill="#141313"/>
<rect x="504" y="626.726" width="3.05551" height="3.05551" fill="#141313"/>
<rect x="551.567" y="626.217" width="3.05551" height="3.05551" transform="rotate(30 551.567 626.217)" fill="#141313"/>
<rect x="568.472" y="626.217" width="3.05551" height="3.05551" transform="rotate(60 568.472 626.217)" fill="#141313"/>
<g clip-path="url(#clip0_544_166)">
<path d="M505.964 27.2606L504.33 22.4405C503.427 19.7784 501.327 17.6089 498.561 16.6713L493.741 15.0374C492.753 14.7026 492.753 13.3002 493.741 12.9654L498.561 11.3315C501.223 10.4291 503.392 8.3284 504.33 5.56225L505.964 0.742207C506.299 -0.245559 507.701 -0.24534 508.036 0.742207L509.67 5.56225C510.572 8.22433 512.673 10.3938 515.439 11.3315L520.259 12.9654C521.247 13.3003 521.247 14.7026 520.259 15.0374L515.439 16.6713C512.777 17.5736 510.607 19.6744 509.67 22.4405L508.036 27.2606C507.701 28.2484 506.299 28.2481 505.964 27.2606ZM497.499 14.0014L499.263 14.5993C502.557 15.7159 505.242 18.3152 506.402 21.7381L507 23.502L507.598 21.7381C508.714 18.4441 511.314 15.7596 514.737 14.5993L516.5 14.0014L514.737 13.4034C511.442 12.2868 508.758 9.68744 507.598 6.26455L507 4.5006L506.402 6.26455C505.285 9.5586 502.686 12.2431 499.263 13.4034L497.499 14.0014Z" fill="#141313"/>
</g>
<g clip-path="url(#clip1_544_166)">
<path d="M69.1858 466.419L67.902 462.631C67.1929 460.54 65.5425 458.835 63.369 458.098L59.5818 456.815C58.8057 456.552 58.8058 455.45 59.5818 455.187L63.369 453.903C65.4606 453.194 67.1652 451.543 67.902 449.37L69.1858 445.583C69.4489 444.807 70.5507 444.807 70.8138 445.583L72.0976 449.37C72.8066 451.462 74.4571 453.166 76.6305 453.903L80.4178 455.187C81.1939 455.45 81.1937 456.552 80.4178 456.815L76.6305 458.098C74.539 458.807 72.8343 460.458 72.0976 462.631L70.8138 466.419C70.5507 467.195 69.4488 467.195 69.1858 466.419ZM62.5349 456.001L63.9209 456.47C66.5091 457.348 68.6183 459.39 69.53 462.08L69.9998 463.465L70.4696 462.08C71.3469 459.491 73.3893 457.382 76.0787 456.47L77.4646 456.001L76.0786 455.531C73.4905 454.653 71.3812 452.611 70.4695 449.922L69.9998 448.536L69.53 449.922C68.6526 452.51 66.6103 454.619 63.9209 455.531L62.5349 456.001Z" fill="#141313"/>
</g>
<defs>
<linearGradient id="paint0_linear_544_166" x1="626.726" y1="506.643" x2="322.479" y2="677.18" gradientUnits="userSpaceOnUse">
<stop stop-color="#FFB147"/>
<stop offset="0.520264" stop-color="#FF6C63"/>
<stop offset="1" stop-color="#B86ADF"/>
</linearGradient>
<linearGradient id="paint1_linear_544_166" x1="407.89" y1="83.8912" x2="67.1154" y2="275.911" gradientUnits="userSpaceOnUse">
<stop stop-color="#FFB147"/>
<stop offset="0.520264" stop-color="#FF6C63"/>
<stop offset="1" stop-color="#B86ADF"/>
</linearGradient>
<linearGradient id="paint2_linear_544_166" x1="529.428" y1="191.437" x2="170.405" y2="398.639" gradientUnits="userSpaceOnUse">
<stop stop-color="#FF6C63"/>
<stop offset="0.520264" stop-color="#FFB147" stop-opacity="0.2"/>
</linearGradient>
<linearGradient id="paint3_linear_544_166" x1="508.384" y1="383.657" x2="106.629" y2="626.399" gradientUnits="userSpaceOnUse">
<stop stop-color="#B238EF"/>
<stop offset="1" stop-color="#FFB147" stop-opacity="0.33"/>
</linearGradient>
<clipPath id="clip0_544_166">
<rect width="28" height="28" fill="white" transform="translate(493)"/>
</clipPath>
<clipPath id="clip1_544_166">
<rect width="22" height="22" fill="white" transform="translate(59 445)"/>
</clipPath>
</defs>
</svg>
