<svg width="100%" height="100%" id="svg" viewBox="0 0 1440 390" xmlns="http://www.w3.org/2000/svg" class="transition duration-300 ease-in-out delay-150"><path d="M 0,400 C 0,400 0,80 0,80 C 67.85645933014354,94.47846889952153 135.71291866028707,108.95693779904306 244,106 C 352.2870813397129,103.04306220095694 501.0047846889953,82.65071770334927 611,72 C 720.9952153110047,61.34928229665072 792.267942583732,60.44019138755982 865,70 C 937.732057416268,79.55980861244018 1011.9234449760766,99.5885167464115 1108,103 C 1204.0765550239234,106.4114832535885 1322.0382775119617,93.20574162679425 1440,80 C 1440,80 1440,400 1440,400 Z" stroke="none" stroke-width="0" fill="#242424" fill-opacity="0.265" class="transition-all duration-300 ease-in-out delay-150 path-0"></path><path d="M 0,400 C 0,400 0,160 0,160 C 91.0717703349282,151.2153110047847 182.1435406698564,142.4306220095694 286,139 C 389.8564593301436,135.5693779904306 506.4976076555025,137.49282296650716 613,140 C 719.5023923444975,142.50717703349284 815.8660287081341,145.59808612440193 909,154 C 1002.1339712918659,162.40191387559807 1092.0382775119617,176.11483253588517 1180,178 C 1267.9617224880383,179.88516746411483 1353.9808612440193,169.94258373205741 1440,160 C 1440,160 1440,400 1440,400 Z" stroke="none" stroke-width="0" fill="#242424" fill-opacity="0.4" class="transition-all duration-300 ease-in-out delay-150 path-1"></path><path d="M 0,400 C 0,400 0,240 0,240 C 93.40669856459331,235.0622009569378 186.81339712918663,230.1244019138756 278,238 C 369.1866028708134,245.8755980861244 458.1531100478468,266.56459330143537 567,260 C 675.8468899521532,253.4354066985646 804.574162679426,219.6172248803828 900,219 C 995.425837320574,218.3827751196172 1057.5502392344497,250.96650717703346 1142,260 C 1226.4497607655503,269.03349282296654 1333.2248803827752,254.51674641148327 1440,240 C 1440,240 1440,400 1440,400 Z" stroke="none" stroke-width="0" fill="#242424" fill-opacity="0.53" class="transition-all duration-300 ease-in-out delay-150 path-2"></path><path d="M 0,400 C 0,400 0,320 0,320 C 74.61244019138758,318.38277511961724 149.22488038277515,316.76555023923447 257,313 C 364.77511961722485,309.23444976076553 505.7129186602871,303.3205741626794 605,302 C 704.2870813397129,300.6794258373206 761.9234449760764,303.9521531100479 861,312 C 960.0765550239236,320.0478468899521 1100.5933014354066,332.87081339712915 1204,335 C 1307.4066985645934,337.12918660287085 1373.7033492822966,328.5645933014354 1440,320 C 1440,320 1440,400 1440,400 Z" stroke="none" stroke-width="0" fill="#242424" fill-opacity="1" class="transition-all duration-300 ease-in-out delay-150 path-3"></path></svg>