<svg width="656" height="320" viewBox="0 0 656 320" fill="none" xmlns="http://www.w3.org/2000/svg">
<path d="M64 1.52588e-05L160 160L64 320H0L96 160L0 1.52588e-05H64Z" fill="white"/>
<path d="M304 0L368 106.667L432 0H496C584.365 0 656 71.6346 656 160C656 248.366 584.365 320 496 320H320L464 80L496 80.0024C506.208 80.0024 516.043 81.5957 525.271 84.5471L422.4 256H496C549.018 255.998 591.997 213.018 591.997 160C591.997 106.982 549.018 64.0024 496 64H457.6L304 320H240L336 160L240 0H304Z" fill="white"/>
<path d="M144 3.05176e-05L240 160L144 320H80L176 160L80 3.05176e-05H144Z" fill="white"/>
<path d="M224 3.05176e-05L320 160L224 320H160L256 160L160 3.05176e-05H224Z" fill="white"/>
</svg>
