<svg width="782" height="648" viewBox="0 0 782 648" fill="none" xmlns="http://www.w3.org/2000/svg">
<path fill-rule="evenodd" clip-rule="evenodd" d="M529.186 155.729C533.07 157.135 536.314 158.393 538.708 159.351L538.7 159.343C555.168 132.529 571.634 105.716 588.099 78.9036C604.251 52.6031 620.402 26.3025 636.555 0H571.537C556.638 24.2942 541.739 48.5903 526.84 72.8864C511.844 97.3401 496.849 121.794 481.853 146.246C485.823 146.354 490.333 146.639 495.268 147.25C497.476 147.528 501.338 148.053 506.11 149.026C508.489 149.505 513.315 150.555 519.324 152.377C522.808 153.432 525.373 154.356 528.84 155.605L529.186 155.729ZM613.178 491.584H678.049L781.086 323.807L747.168 268.782L678.435 156.03H612.792L716.045 323.846L613.178 491.584ZM103.037 491.615H167.908L65.0332 323.869L168.294 156.061H102.651L33.9183 268.813L0 323.838L103.037 491.615ZM578.047 193.517C539.665 162.749 498.611 157.598 482.285 156.447C467.547 156.382 452.81 156.318 438.073 156.254C423.336 156.191 408.599 156.127 393.86 156.061C382.287 175.091 370.715 194.122 359.142 213.154L358.041 214.963L357.963 215.093L357.884 215.222L357.806 215.351C346.656 233.687 335.505 252.023 324.355 270.358C312.809 251.578 301.26 232.796 289.712 214.015L289.273 213.301C277.541 194.22 265.809 175.14 254.078 156.061H188.435L291.696 323.869L291.173 324.722C259.38 376.564 227.587 428.406 195.788 480.254H195.555L92.6807 648H157.552L253.589 491.615H253.692C281.763 445.947 309.834 400.277 337.905 354.607L338.759 353.217L340.927 349.689L342.92 346.446C371.484 299.974 400.048 253.502 428.612 207.031H433.246H438.652H442.513H454.87C486.162 207.055 505.84 213.21 505.84 213.21C521.2 218.029 531.618 224.632 534.8 226.724C537.488 228.493 546.237 234.447 555.651 244.487C560.633 249.8 576.055 267.207 583.453 291.595C593.555 324.888 586.828 365.016 563.374 395.08C539.727 425.392 507.57 434.435 497.731 436.783C485.189 439.772 474.354 440.119 466.84 439.872C450.17 439.806 433.503 439.743 416.835 439.679L416.063 439.676H416.06H416.057H416.054C399.647 439.613 383.24 439.551 366.83 439.486C389.126 403.145 411.42 366.804 433.714 330.463C455.953 294.21 478.193 257.957 500.434 221.705L500.331 221.683L500.331 221.683C499.536 221.518 498.214 221.243 496.573 220.932C489.236 219.527 477.636 217.357 463.365 217.071H461.256H454.87H437.88C410.408 262.178 382.938 307.286 355.468 352.393L354.18 354.508L353.381 355.82C325.815 401.085 298.25 446.35 270.682 491.615H477.652C480.37 491.53 484.394 491.344 489.236 490.842C533.889 486.247 564.996 464.098 572.642 458.407C599.015 438.768 613.75 415.684 621.295 401.258C635.188 374.692 638.717 350.736 639.829 338.704C643.459 299.341 632.122 269.338 627.473 258.388C623.079 248.039 609.325 218.585 578.047 193.517ZM408.754 129.52C406.743 129.52 405.01 129.017 403.554 128.012C402.098 127.007 400.988 125.655 400.226 123.956C399.463 122.257 399.082 120.368 399.082 118.288C399.082 116.069 399.48 113.955 400.278 111.944C401.075 109.899 402.167 108.096 403.554 106.536C404.975 104.941 406.587 103.676 408.39 102.74C410.192 101.804 412.082 101.336 414.058 101.336C416.034 101.336 417.698 101.873 419.05 102.948C420.402 104.023 421.338 105.357 421.858 106.952L425.238 91.04H431.01L424.354 122.24C424.319 122.413 424.284 122.569 424.25 122.708V123.02C424.25 123.713 424.648 124.077 425.446 124.112L424.406 129C423.92 129.069 423.487 129.121 423.106 129.156C422.724 129.225 422.378 129.26 422.066 129.26C420.991 129.26 420.142 129.035 419.518 128.584C418.928 128.099 418.634 127.44 418.634 126.608C418.634 126.435 418.651 126.244 418.686 126.036C418.72 125.793 418.755 125.516 418.79 125.204C418.859 124.857 418.946 124.476 419.05 124.06C417.698 125.793 416.086 127.145 414.214 128.116C412.376 129.052 410.556 129.52 408.754 129.52ZM411.25 124.632C411.943 124.632 412.671 124.493 413.434 124.216C414.231 123.939 414.994 123.557 415.722 123.072C416.484 122.587 417.178 122.015 417.802 121.356C418.426 120.697 418.928 119.987 419.31 119.224L420.766 112.1C420.627 110.991 420.263 110.003 419.674 109.136C419.084 108.235 418.356 107.524 417.49 107.004C416.658 106.484 415.756 106.224 414.786 106.224C413.468 106.224 412.22 106.553 411.042 107.212C409.898 107.836 408.875 108.685 407.974 109.76C407.107 110.835 406.414 112.031 405.894 113.348C405.374 114.665 405.114 116 405.114 117.352C405.114 118.739 405.356 119.969 405.842 121.044C406.362 122.119 407.072 122.985 407.974 123.644C408.91 124.303 410.002 124.632 411.25 124.632ZM131.324 115.688L123.42 92.08H129.816L135.328 110.592L148.848 92.08H155.192L137.148 115.792L134.34 129H128.464L131.324 115.688ZM157.386 129.52C155.376 129.52 153.642 129.017 152.186 128.012C150.73 127.007 149.621 125.655 148.858 123.956C148.096 122.257 147.714 120.368 147.714 118.288C147.714 116.069 148.113 113.955 148.91 111.944C149.708 109.899 150.8 108.096 152.186 106.536C153.608 104.941 155.22 103.676 157.022 102.74C158.825 101.804 160.714 101.336 162.69 101.336C164.666 101.336 166.33 101.873 167.682 102.948C169.034 104.023 169.97 105.357 170.49 106.952L171.582 101.856H177.354L172.986 122.24C172.952 122.413 172.917 122.569 172.882 122.708V123.02C172.882 123.713 173.281 124.077 174.078 124.112L173.038 129C172.553 129.069 172.12 129.121 171.738 129.156C171.357 129.225 171.01 129.26 170.698 129.26C169.624 129.26 168.792 129.035 168.202 128.584C167.613 128.099 167.318 127.423 167.318 126.556V125.932C167.353 125.689 167.388 125.412 167.422 125.1C167.492 124.788 167.578 124.441 167.682 124.06C166.33 125.793 164.718 127.145 162.846 128.116C161.009 129.052 159.189 129.52 157.386 129.52ZM159.882 124.632C160.576 124.632 161.304 124.493 162.066 124.216C162.864 123.939 163.626 123.557 164.354 123.072C165.117 122.587 165.81 122.015 166.434 121.356C167.058 120.697 167.561 119.987 167.942 119.224L169.398 112.1C169.26 110.991 168.896 110.003 168.306 109.136C167.717 108.235 166.989 107.524 166.122 107.004C165.29 106.484 164.389 106.224 163.418 106.224C162.101 106.224 160.853 106.553 159.674 107.212C158.53 107.836 157.508 108.685 156.606 109.76C155.74 110.835 155.046 112.031 154.526 113.348C154.006 114.665 153.746 116 153.746 117.352C153.746 118.739 153.989 119.969 154.474 121.044C154.994 122.119 155.705 122.985 156.606 123.644C157.542 124.303 158.634 124.632 159.882 124.632ZM189.691 101.804H184.543L178.719 129H184.439L187.923 112.828C188.547 111.58 189.361 110.488 190.367 109.552C191.372 108.581 192.429 107.819 193.539 107.264C194.683 106.709 195.757 106.432 196.763 106.432C197.837 106.432 198.652 106.761 199.207 107.42C199.796 108.044 200.091 109.049 200.091 110.436C200.091 110.921 200.056 111.441 199.987 111.996C199.917 112.516 199.813 113.105 199.675 113.764L196.451 129H202.171L205.655 112.412C205.828 111.58 205.967 110.765 206.071 109.968C206.209 109.171 206.279 108.408 206.279 107.68C206.279 106.467 206.088 105.392 205.707 104.456C205.325 103.485 204.701 102.723 203.835 102.168C202.968 101.613 201.772 101.336 200.247 101.336C198.756 101.336 197.283 101.579 195.827 102.064C194.371 102.549 193.019 103.243 191.771 104.144C190.523 105.011 189.448 106.051 188.547 107.264L189.691 101.804ZM214.402 101.804H219.55L218.406 107.264C219.307 106.051 220.382 105.011 221.63 104.144C222.878 103.243 224.23 102.549 225.686 102.064C227.142 101.579 228.615 101.336 230.106 101.336C231.631 101.336 232.827 101.613 233.694 102.168C234.561 102.723 235.185 103.485 235.566 104.456C235.947 105.392 236.138 106.467 236.138 107.68C236.138 108.408 236.069 109.171 235.93 109.968C235.826 110.765 235.687 111.58 235.514 112.412L232.03 129H226.31L229.534 113.764C229.673 113.105 229.777 112.516 229.846 111.996C229.915 111.441 229.95 110.921 229.95 110.436C229.95 109.049 229.655 108.044 229.066 107.42C228.511 106.761 227.697 106.432 226.622 106.432C225.617 106.432 224.542 106.709 223.398 107.264C222.289 107.819 221.231 108.581 220.226 109.552C219.221 110.488 218.406 111.58 217.782 112.828L214.298 129H208.578L214.402 101.804ZM272.195 92.08H259.663L251.811 129H264.343C267.428 129 270.289 128.445 272.923 127.336C275.558 126.192 277.846 124.597 279.787 122.552C281.729 120.507 283.237 118.115 284.311 115.376C285.421 112.603 285.975 109.587 285.975 106.328C285.975 103.659 285.473 101.249 284.467 99.1C283.497 96.9507 281.988 95.252 279.943 94.004C277.932 92.7214 275.35 92.08 272.195 92.08ZM271.415 122.5C269.647 123.401 267.654 123.852 265.435 123.852H258.779L264.447 97.228H271.103C273.045 97.228 274.674 97.6614 275.991 98.528C277.309 99.36 278.297 100.521 278.955 102.012C279.614 103.503 279.943 105.236 279.943 107.212C279.943 109.396 279.596 111.493 278.903 113.504C278.245 115.48 277.274 117.248 275.991 118.808C274.743 120.333 273.218 121.564 271.415 122.5ZM294.835 129.52C290.606 129.52 288.491 127.267 288.491 122.76C288.491 122.136 288.526 121.477 288.595 120.784C288.699 120.056 288.838 119.276 289.011 118.444L292.599 101.804H298.267L294.939 117.3C294.696 118.479 294.575 119.519 294.575 120.42C294.575 123.228 295.771 124.632 298.163 124.632C299.168 124.632 300.174 124.407 301.179 123.956C302.219 123.505 303.224 122.847 304.195 121.98C305.2 121.079 306.084 120.004 306.847 118.756L310.435 101.804H316.155L311.839 122.24C311.804 122.413 311.77 122.569 311.735 122.708C311.7 122.812 311.683 122.916 311.683 123.02C311.683 123.713 312.082 124.077 312.879 124.112L311.891 129C311.371 129.069 310.92 129.121 310.539 129.156C310.158 129.225 309.811 129.26 309.499 129.26C308.459 129.26 307.644 129.035 307.055 128.584C306.466 128.133 306.171 127.492 306.171 126.66C306.171 126.487 306.188 126.279 306.223 126.036C306.258 125.759 306.31 125.429 306.379 125.048L306.639 123.488C305.079 125.464 303.276 126.972 301.231 128.012C299.186 129.017 297.054 129.52 294.835 129.52ZM328.632 101.804H323.328L317.504 129H323.224L326.76 112.36C327.835 110.592 329.29 109.223 331.128 108.252C332.965 107.281 334.906 106.779 336.952 106.744L338.044 101.752C337.905 101.717 337.732 101.7 337.524 101.7C337.316 101.665 337.039 101.648 336.692 101.648C335.062 101.648 333.416 102.22 331.752 103.364C330.088 104.508 328.597 106.016 327.28 107.888L328.632 101.804ZM346.902 129.52C344.891 129.52 343.158 129.017 341.702 128.012C340.246 127.007 339.137 125.655 338.374 123.956C337.611 122.257 337.23 120.368 337.23 118.288C337.23 116.069 337.629 113.955 338.426 111.944C339.223 109.899 340.315 108.096 341.702 106.536C343.123 104.941 344.735 103.676 346.538 102.74C348.341 101.804 350.23 101.336 352.206 101.336C354.182 101.336 355.846 101.873 357.198 102.948C358.55 104.023 359.486 105.357 360.006 106.952L361.098 101.856H366.87L362.502 122.24C362.467 122.413 362.433 122.569 362.398 122.708V123.02C362.398 123.713 362.797 124.077 363.594 124.112L362.554 129C362.069 129.069 361.635 129.121 361.254 129.156C360.873 129.225 360.526 129.26 360.214 129.26C359.139 129.26 358.307 129.035 357.718 128.584C357.129 128.099 356.834 127.423 356.834 126.556V125.932C356.869 125.689 356.903 125.412 356.938 125.1C357.007 124.788 357.094 124.441 357.198 124.06C355.846 125.793 354.234 127.145 352.362 128.116C350.525 129.052 348.705 129.52 346.902 129.52ZM349.398 124.632C350.091 124.632 350.819 124.493 351.582 124.216C352.379 123.939 353.142 123.557 353.87 123.072C354.633 122.587 355.326 122.015 355.95 121.356C356.574 120.697 357.077 119.987 357.458 119.224L358.914 112.1C358.775 110.991 358.411 110.003 357.822 109.136C357.233 108.235 356.505 107.524 355.638 107.004C354.806 106.484 353.905 106.224 352.934 106.224C351.617 106.224 350.369 106.553 349.19 107.212C348.046 107.836 347.023 108.685 346.122 109.76C345.255 110.835 344.562 112.031 344.042 113.348C343.522 114.665 343.262 116 343.262 117.352C343.262 118.739 343.505 119.969 343.99 121.044C344.51 122.119 345.221 122.985 346.122 123.644C347.058 124.303 348.15 124.632 349.398 124.632ZM379.206 101.804H374.058L368.234 129H373.954L377.438 112.828C378.062 111.58 378.877 110.488 379.882 109.552C380.888 108.581 381.945 107.819 383.054 107.264C384.198 106.709 385.273 106.432 386.278 106.432C387.353 106.432 388.168 106.761 388.722 107.42C389.312 108.044 389.606 109.049 389.606 110.436C389.606 110.921 389.572 111.441 389.502 111.996C389.433 112.516 389.329 113.105 389.19 113.764L385.966 129H391.686L395.17 112.412C395.344 111.58 395.482 110.765 395.586 109.968C395.725 109.171 395.794 108.408 395.794 107.68C395.794 106.467 395.604 105.392 395.222 104.456C394.841 103.485 394.217 102.723 393.35 102.168C392.484 101.613 391.288 101.336 389.762 101.336C388.272 101.336 386.798 101.579 385.342 102.064C383.886 102.549 382.534 103.243 381.286 104.144C380.038 105.011 378.964 106.051 378.062 107.264L379.206 101.804ZM436.016 128.012C437.646 129.017 439.604 129.52 441.892 129.52C443.626 129.52 445.324 129.225 446.988 128.636C448.687 128.047 450.23 127.232 451.616 126.192C453.003 125.117 454.13 123.904 454.996 122.552L450.472 121.148C449.675 122.431 448.583 123.453 447.196 124.216C445.81 124.944 444.371 125.308 442.88 125.308C441.494 125.308 440.332 124.996 439.396 124.372C438.495 123.713 437.819 122.847 437.368 121.772C436.952 120.663 436.744 119.449 436.744 118.132C436.744 117.81 436.753 117.492 436.771 117.177C437.422 117.226 438.037 117.267 438.616 117.3C439.83 117.335 440.922 117.352 441.892 117.352C447.023 117.352 450.836 116.624 453.332 115.168C455.863 113.712 457.128 111.597 457.128 108.824C457.128 107.16 456.73 105.791 455.932 104.716C455.17 103.607 454.078 102.775 452.656 102.22C451.27 101.631 449.64 101.336 447.768 101.336C445.376 101.336 443.158 101.787 441.112 102.688C439.102 103.555 437.334 104.768 435.808 106.328C434.283 107.888 433.104 109.673 432.272 111.684C431.44 113.66 431.024 115.775 431.024 118.028C431.024 120.212 431.44 122.171 432.272 123.904C433.139 125.637 434.387 127.007 436.016 128.012ZM437.468 113.412L437.472 113.4C437.992 111.909 438.703 110.575 439.604 109.396C440.54 108.183 441.65 107.247 442.932 106.588C444.215 105.895 445.619 105.548 447.144 105.548C448.115 105.548 448.947 105.687 449.64 105.964C450.334 106.207 450.871 106.571 451.252 107.056C451.634 107.541 451.824 108.183 451.824 108.98C451.824 109.881 451.512 110.696 450.888 111.424C450.264 112.117 449.242 112.655 447.82 113.036C446.399 113.417 444.458 113.608 441.996 113.608C441.06 113.608 440.055 113.573 438.98 113.504C438.507 113.473 438.003 113.443 437.468 113.412ZM460.561 124.944C460.561 124.667 460.578 124.389 460.613 124.112C460.648 123.835 460.7 123.54 460.769 123.228L464.409 106.224H460.925L461.913 101.804H465.293L467.217 92.86H472.937L471.013 101.804H476.629L475.693 106.224H470.129L466.905 121.408L466.801 121.824V122.188C466.801 122.881 466.992 123.384 467.373 123.696C467.789 124.008 468.309 124.164 468.933 124.164C469.453 124.164 469.956 124.095 470.441 123.956C470.961 123.817 471.429 123.679 471.845 123.54C472.261 123.367 472.608 123.211 472.885 123.072L473.093 127.596C472.573 127.908 471.914 128.22 471.117 128.532C470.354 128.809 469.522 129.017 468.621 129.156C467.72 129.329 466.784 129.416 465.813 129.416C464.322 129.416 463.074 129.069 462.069 128.376C461.064 127.648 460.561 126.504 460.561 124.944ZM443.614 554.44C441.912 554.44 440.446 554.015 439.214 553.164C437.982 552.313 437.043 551.169 436.398 549.732C435.752 548.295 435.43 546.696 435.43 544.936C435.43 543.059 435.767 541.269 436.442 539.568C437.116 537.837 438.04 536.312 439.214 534.992C440.416 533.643 441.78 532.572 443.306 531.78C444.831 530.988 446.43 530.592 448.102 530.592C449.774 530.592 451.182 531.047 452.326 531.956C453.47 532.865 454.262 533.995 454.702 535.344L457.562 521.88H462.446L456.814 548.28C456.797 548.365 456.78 548.445 456.763 548.52C456.756 548.547 456.75 548.574 456.744 548.601C456.738 548.627 456.732 548.652 456.726 548.676V548.94C456.726 549.527 457.063 549.835 457.738 549.864L456.858 554C456.447 554.059 456.08 554.103 455.758 554.132C455.435 554.191 455.142 554.22 454.878 554.22C453.968 554.22 453.25 554.029 452.722 553.648C452.223 553.237 451.974 552.68 451.974 551.976C451.974 551.829 451.988 551.668 452.018 551.492C452.047 551.287 452.076 551.052 452.106 550.788C452.12 550.718 452.135 550.646 452.15 550.572C452.161 550.521 452.173 550.469 452.184 550.416L452.2 550.344L452.219 550.265C452.251 550.122 452.287 549.974 452.326 549.82C451.182 551.287 449.818 552.431 448.234 553.252C446.679 554.044 445.139 554.44 443.614 554.44ZM445.726 550.304C446.312 550.304 446.928 550.187 447.574 549.952C448.248 549.717 448.894 549.395 449.51 548.984C450.155 548.573 450.742 548.089 451.27 547.532C451.798 546.975 452.223 546.373 452.546 545.728L453.778 539.7C453.66 538.761 453.352 537.925 452.854 537.192C452.355 536.429 451.739 535.828 451.006 535.388C450.302 534.948 449.539 534.728 448.718 534.728C447.603 534.728 446.547 535.007 445.55 535.564C444.582 536.092 443.716 536.811 442.954 537.72C442.22 538.629 441.634 539.641 441.194 540.756C440.754 541.871 440.534 543 440.534 544.144C440.534 545.317 440.739 546.359 441.15 547.268C441.59 548.177 442.191 548.911 442.954 549.468C443.746 550.025 444.67 550.304 445.726 550.304ZM287.76 522.76H267.96L261.316 554H266.288L269.148 540.536H281.556L282.436 536.444H270.028L272.008 527.116H286.836L287.76 522.76ZM293.49 530.988H289.002L284.074 554H288.914L291.906 539.92C292.815 538.424 294.047 537.265 295.602 536.444C297.157 535.623 298.799 535.197 300.53 535.168L301.454 530.944C301.337 530.915 301.19 530.9 301.014 530.9C300.838 530.871 300.603 530.856 300.31 530.856C298.931 530.856 297.538 531.34 296.13 532.308C294.722 533.276 293.461 534.552 292.346 536.136L293.49 530.988ZM310.008 554.44C307.896 554.44 306.136 554 304.728 553.12C303.349 552.24 302.322 551.067 301.648 549.6C301.002 548.104 300.68 546.476 300.68 544.716C300.68 542.809 301.017 541.005 301.692 539.304C302.396 537.603 303.378 536.092 304.64 534.772C305.901 533.452 307.368 532.425 309.04 531.692C310.712 530.959 312.516 530.592 314.452 530.592C316.593 530.592 318.353 531.032 319.732 531.912C321.14 532.792 322.181 533.965 322.856 535.432C323.53 536.899 323.868 538.527 323.868 540.316C323.868 542.223 323.516 544.027 322.812 545.728C322.137 547.429 321.169 548.94 319.908 550.26C318.646 551.551 317.165 552.577 315.464 553.34C313.792 554.073 311.973 554.44 310.008 554.44ZM310.8 550.304C311.826 550.304 312.824 550.084 313.792 549.644C314.76 549.175 315.61 548.515 316.344 547.664C317.106 546.813 317.708 545.831 318.148 544.716C318.588 543.572 318.808 542.325 318.808 540.976C318.808 539.744 318.617 538.673 318.236 537.764C317.854 536.825 317.282 536.092 316.52 535.564C315.757 535.007 314.818 534.728 313.704 534.728C312.677 534.728 311.68 534.963 310.712 535.432C309.773 535.901 308.922 536.561 308.16 537.412C307.397 538.263 306.796 539.26 306.356 540.404C305.916 541.548 305.696 542.78 305.696 544.1C305.696 545.303 305.886 546.373 306.268 547.312C306.649 548.251 307.221 548.984 307.984 549.512C308.776 550.04 309.714 550.304 310.8 550.304ZM334.737 530.988H330.381L325.453 554H330.293L333.241 540.316C333.769 539.26 334.458 538.336 335.309 537.544C336.16 536.723 337.054 536.077 337.993 535.608C338.961 535.139 339.87 534.904 340.721 534.904C341.63 534.904 342.32 535.183 342.789 535.74C343.288 536.268 343.537 537.119 343.537 538.292C343.537 538.703 343.508 539.143 343.449 539.612C343.39 540.052 343.302 540.551 343.185 541.108L340.457 554H345.297L348.245 539.964C348.392 539.26 348.509 538.571 348.597 537.896C348.714 537.221 348.773 536.576 348.773 535.96C348.773 534.933 348.612 534.024 348.289 533.232C347.966 532.411 347.438 531.765 346.705 531.296C345.972 530.827 344.96 530.592 343.669 530.592C342.408 530.592 341.161 530.797 339.929 531.208C338.697 531.619 337.553 532.205 336.497 532.968C335.441 533.701 334.532 534.581 333.769 535.608L334.737 530.988ZM352.486 550.568C352.486 550.333 352.5 550.099 352.53 549.864C352.559 549.629 352.603 549.38 352.662 549.116L355.742 534.728H352.794L353.63 530.988H356.49L358.118 523.42H362.958L361.33 530.988H366.082L365.29 534.728H360.582L357.854 547.576L357.766 547.928V548.236C357.766 548.823 357.927 549.248 358.25 549.512C358.602 549.776 359.042 549.908 359.57 549.908C360.01 549.908 360.435 549.849 360.846 549.732C361.286 549.615 361.682 549.497 362.034 549.38C362.386 549.233 362.679 549.101 362.914 548.984L363.09 552.812C362.65 553.076 362.092 553.34 361.418 553.604C360.772 553.839 360.068 554.015 359.306 554.132C358.543 554.279 357.751 554.352 356.93 554.352C355.668 554.352 354.612 554.059 353.762 553.472C352.911 552.856 352.486 551.888 352.486 550.568ZM368.874 539.788L367.95 544.144H380.49L381.414 539.788H368.874ZM391.151 522.76H411.171L410.247 527.116H395.199L393.307 536.004H406.331L405.495 540.096H392.427L390.403 549.644H405.847L404.923 554H384.507L391.151 522.76ZM418.612 530.988H414.256L409.328 554H414.168L417.116 540.316C417.644 539.26 418.333 538.336 419.184 537.544C420.035 536.723 420.929 536.077 421.868 535.608C422.836 535.139 423.745 534.904 424.596 534.904C425.505 534.904 426.195 535.183 426.664 535.74C427.163 536.268 427.412 537.119 427.412 538.292C427.412 538.703 427.383 539.143 427.324 539.612C427.265 540.052 427.177 540.551 427.06 541.108L424.332 554H429.172L432.12 539.964C432.267 539.26 432.384 538.571 432.472 537.896C432.589 537.221 432.648 536.576 432.648 535.96C432.648 534.933 432.487 534.024 432.164 533.232C431.841 532.411 431.313 531.765 430.58 531.296C429.847 530.827 428.835 530.592 427.544 530.592C426.283 530.592 425.036 530.797 423.804 531.208C422.572 531.619 421.428 532.205 420.372 532.968C419.316 533.701 418.407 534.581 417.644 535.608L418.612 530.988ZM479.797 522.76H474.473L480.017 554H484.197L492.645 540.008L495.109 554H499.289L518.165 522.76H512.753L498.277 548.28L496.473 536.796L504.481 522.892H499.861L494.009 533.496L492.689 522.892H488.069L490.181 536.796L483.449 548.28L479.797 522.76ZM522.142 554.44C520.206 554.44 518.549 554.015 517.17 553.164C515.792 552.313 514.736 551.155 514.002 549.688C513.298 548.221 512.946 546.564 512.946 544.716C512.946 542.809 513.298 541.02 514.002 539.348C514.706 537.647 515.704 536.136 516.994 534.816C518.285 533.496 519.781 532.469 521.482 531.736C523.213 530.973 525.09 530.592 527.114 530.592C528.698 530.592 530.077 530.841 531.25 531.34C532.453 531.809 533.377 532.513 534.022 533.452C534.697 534.361 535.034 535.52 535.034 536.928C535.034 539.275 533.964 541.064 531.822 542.296C529.71 543.528 526.484 544.144 522.142 544.144C521.321 544.144 520.397 544.129 519.37 544.1C519.141 544.087 518.905 544.072 518.662 544.056C518.387 544.038 518.102 544.018 517.809 543.996C517.794 544.263 517.786 544.532 517.786 544.804C517.786 545.919 517.962 546.945 518.314 547.884C518.696 548.793 519.268 549.527 520.03 550.084C520.822 550.612 521.805 550.876 522.978 550.876C524.24 550.876 525.457 550.568 526.63 549.952C527.804 549.307 528.728 548.441 529.402 547.356L533.23 548.544C532.497 549.688 531.544 550.715 530.37 551.624C529.197 552.504 527.892 553.193 526.454 553.692C525.046 554.191 523.609 554.44 522.142 554.44ZM518.402 540.8L518.399 540.81L518.65 540.825L518.785 540.833L519.023 540.847L519.152 540.855L519.323 540.865L519.5 540.877L519.678 540.888C520.588 540.947 521.438 540.976 522.23 540.976C524.313 540.976 525.956 540.815 527.158 540.492C528.361 540.169 529.226 539.715 529.754 539.128C530.282 538.512 530.546 537.823 530.546 537.06C530.546 536.385 530.385 535.843 530.062 535.432C529.74 535.021 529.285 534.713 528.698 534.508C528.112 534.273 527.408 534.156 526.586 534.156C525.296 534.156 524.108 534.449 523.022 535.036C521.937 535.593 520.998 536.385 520.206 537.412C519.444 538.409 518.842 539.539 518.402 540.8ZM543.655 553.164C544.799 554.015 546.251 554.44 548.011 554.44C549.683 554.44 551.296 554.059 552.851 553.296C554.405 552.533 555.799 551.477 557.031 550.128C558.292 548.779 559.275 547.239 559.979 545.508C560.712 543.748 561.079 541.885 561.079 539.92C561.079 538.248 560.785 536.708 560.199 535.3C559.641 533.892 558.805 532.763 557.691 531.912C556.576 531.032 555.183 530.592 553.511 530.592C551.868 530.592 550.299 531.032 548.803 531.912C547.307 532.763 546.001 533.907 544.887 535.344L547.703 521.88H542.863L536.043 554H540.311L541.191 549.82C541.689 551.199 542.511 552.313 543.655 553.164ZM550.783 549.556C549.815 550.055 548.803 550.304 547.747 550.304C546.837 550.304 546.001 550.113 545.239 549.732C544.505 549.321 543.904 548.779 543.435 548.104C542.965 547.4 542.701 546.623 542.643 545.772L543.963 539.7C544.549 538.791 545.224 537.969 545.987 537.236C546.749 536.473 547.571 535.872 548.451 535.432C549.36 534.963 550.255 534.728 551.135 534.728C552.191 534.728 553.071 535.021 553.775 535.608C554.479 536.165 555.021 536.913 555.403 537.852C555.784 538.761 555.975 539.759 555.975 540.844C555.975 542.076 555.74 543.264 555.271 544.408C554.831 545.523 554.215 546.535 553.423 547.444C552.66 548.324 551.78 549.028 550.783 549.556ZM580.644 522.76H591.248C593.917 522.76 596.102 523.303 597.804 524.388C599.534 525.444 600.81 526.881 601.632 528.7C602.482 530.519 602.908 532.557 602.908 534.816C602.908 537.573 602.438 540.125 601.5 542.472C600.59 544.789 599.314 546.813 597.672 548.544C596.029 550.275 594.093 551.624 591.864 552.592C589.634 553.531 587.214 554 584.604 554H574L580.644 522.76ZM585.528 549.644C587.405 549.644 589.092 549.263 590.588 548.5C592.113 547.708 593.404 546.667 594.46 545.376C595.545 544.056 596.366 542.56 596.924 540.888C597.51 539.187 597.804 537.412 597.804 535.564C597.804 533.892 597.525 532.425 596.968 531.164C596.41 529.903 595.574 528.92 594.46 528.216C593.345 527.483 591.966 527.116 590.324 527.116H584.692L579.896 549.644H585.528ZM608.909 553.164C610.287 554.015 611.945 554.44 613.88 554.44C615.347 554.44 616.784 554.191 618.193 553.692C619.63 553.193 620.935 552.504 622.109 551.624C623.282 550.715 624.235 549.688 624.969 548.544L621.141 547.356C620.466 548.441 619.542 549.307 618.369 549.952C617.195 550.568 615.978 550.876 614.716 550.876C613.543 550.876 612.56 550.612 611.768 550.084C611.006 549.527 610.434 548.793 610.052 547.884C609.701 546.945 609.525 545.919 609.525 544.804C609.525 544.532 609.532 544.263 609.548 543.996C609.68 544.006 609.811 544.015 609.939 544.025C610.141 544.039 610.338 544.052 610.53 544.065C610.618 544.07 610.706 544.076 610.792 544.081C610.899 544.088 611.004 544.094 611.109 544.1C612.135 544.129 613.059 544.144 613.88 544.144C618.222 544.144 621.448 543.528 623.561 542.296C625.702 541.064 626.772 539.275 626.772 536.928C626.772 535.52 626.435 534.361 625.76 533.452C625.115 532.513 624.191 531.809 622.989 531.34C621.815 530.841 620.437 530.592 618.853 530.592C616.828 530.592 614.951 530.973 613.221 531.736C611.519 532.469 610.023 533.496 608.733 534.816C607.442 536.136 606.445 537.647 605.74 539.348C605.036 541.02 604.685 542.809 604.685 544.716C604.685 546.564 605.036 548.221 605.74 549.688C606.474 551.155 607.53 552.313 608.909 553.164ZM610.137 540.81L610.141 540.8C610.581 539.539 611.182 538.409 611.945 537.412C612.737 536.385 613.675 535.593 614.76 535.036C615.846 534.449 617.034 534.156 618.324 534.156C619.146 534.156 619.85 534.273 620.437 534.508C621.023 534.713 621.478 535.021 621.801 535.432C622.123 535.843 622.285 536.385 622.285 537.06C622.285 537.823 622.021 538.512 621.492 539.128C620.964 539.715 620.099 540.169 618.896 540.492C617.694 540.815 616.051 540.976 613.969 540.976C613.177 540.976 612.326 540.947 611.417 540.888L611.254 540.878L611.087 540.867L610.85 540.852C610.62 540.838 610.382 540.824 610.137 540.81ZM629.64 530.988H634.656L636.68 549.908C637.795 548.265 638.822 546.667 639.76 545.112C640.728 543.557 641.594 542.017 642.356 540.492C643.148 538.937 643.852 537.368 644.468 535.784C645.114 534.2 645.656 532.601 646.096 530.988H650.628C649.572 534.801 647.974 538.629 645.832 542.472C643.691 546.315 641.139 550.157 638.176 554H633.028L629.64 530.988ZM257.128 604.812C258.624 605.751 260.589 606.22 263.024 606.22C265.312 606.22 267.35 605.809 269.14 604.988C270.958 604.167 272.528 603.052 273.848 601.644C275.168 600.207 276.268 598.549 277.148 596.672C278.057 594.765 278.732 592.741 279.172 590.6L282.56 574.76H277.588L274.244 590.6C273.95 592.008 273.525 593.372 272.968 594.692C272.44 596.012 271.765 597.215 270.944 598.3C270.122 599.356 269.125 600.207 267.952 600.852C266.808 601.468 265.473 601.776 263.948 601.776C262.481 601.776 261.308 601.468 260.428 600.852C259.548 600.236 258.917 599.415 258.536 598.388C258.154 597.361 257.964 596.188 257.964 594.868C257.964 594.193 258.008 593.504 258.096 592.8C258.184 592.096 258.301 591.363 258.448 590.6L261.836 574.76H256.864L253.52 590.6C253.314 591.509 253.153 592.389 253.036 593.24C252.948 594.061 252.904 594.897 252.904 595.748C252.904 597.684 253.226 599.444 253.872 601.028C254.546 602.612 255.632 603.873 257.128 604.812ZM289.058 574.804H294.03L287.386 606H282.414L289.058 574.804ZM297.923 606L324.983 574.76H319.615L292.555 606H297.923ZM335.727 606.22C333.292 606.22 331.327 605.751 329.831 604.812C328.335 603.873 327.25 602.612 326.575 601.028C325.93 599.444 325.607 597.684 325.607 595.748C325.607 594.897 325.651 594.061 325.739 593.24C325.856 592.389 326.018 591.509 326.223 590.6L329.567 574.76H334.539L331.151 590.6C331.004 591.363 330.887 592.096 330.799 592.8C330.711 593.504 330.667 594.193 330.667 594.868C330.667 596.188 330.858 597.361 331.239 598.388C331.62 599.415 332.251 600.236 333.131 600.852C334.011 601.468 335.184 601.776 336.651 601.776C338.176 601.776 339.511 601.468 340.655 600.852C341.828 600.207 342.826 599.356 343.647 598.3C344.468 597.215 345.143 596.012 345.671 594.692C346.228 593.372 346.654 592.008 346.947 590.6L350.291 574.76H355.263L351.875 590.6C351.435 592.741 350.76 594.765 349.851 596.672C348.971 598.549 347.871 600.207 346.551 601.644C345.231 603.052 343.662 604.167 341.843 604.988C340.054 605.809 338.015 606.22 335.727 606.22ZM358.329 574.76L365.809 590.6L352.037 606H357.493L367.701 594.12L372.849 606H378.261L371.089 590.6L385.257 574.76H379.845L369.197 587.08L363.785 574.76H358.329ZM399.144 574.76H409.748C412.417 574.76 414.602 575.303 416.304 576.388C418.034 577.444 419.31 578.881 420.132 580.7C420.982 582.519 421.408 584.557 421.408 586.816C421.408 589.573 420.938 592.125 420 594.472C419.09 596.789 417.814 598.813 416.172 600.544C414.529 602.275 412.593 603.624 410.364 604.592C408.134 605.531 405.714 606 403.104 606H392.5L399.144 574.76ZM404.028 601.644C405.905 601.644 407.592 601.263 409.088 600.5C410.613 599.708 411.904 598.667 412.96 597.376C414.045 596.056 414.866 594.56 415.424 592.888C416.01 591.187 416.304 589.412 416.304 587.564C416.304 585.892 416.025 584.425 415.468 583.164C414.91 581.903 414.074 580.92 412.96 580.216C411.845 579.483 410.466 579.116 408.824 579.116H403.192L398.396 601.644H404.028ZM427.409 605.164C428.787 606.015 430.444 606.44 432.38 606.44C433.847 606.44 435.284 606.191 436.693 605.692C438.13 605.193 439.435 604.504 440.608 603.624C441.782 602.715 442.735 601.688 443.469 600.544L439.641 599.356C438.966 600.441 438.042 601.307 436.868 601.952C435.695 602.568 434.478 602.876 433.216 602.876C432.043 602.876 431.06 602.612 430.268 602.084C429.506 601.527 428.934 600.793 428.552 599.884C428.201 598.945 428.024 597.919 428.024 596.804C428.024 596.532 428.032 596.263 428.047 595.996C428.598 596.037 429.118 596.072 429.608 596.1C430.635 596.129 431.559 596.144 432.38 596.144C436.722 596.144 439.948 595.528 442.06 594.296C444.202 593.064 445.272 591.275 445.272 588.928C445.272 587.52 444.935 586.361 444.26 585.452C443.615 584.513 442.691 583.809 441.488 583.34C440.315 582.841 438.936 582.592 437.352 582.592C435.328 582.592 433.451 582.973 431.72 583.736C430.019 584.469 428.523 585.496 427.232 586.816C425.942 588.136 424.944 589.647 424.24 591.348C423.536 593.02 423.185 594.809 423.185 596.716C423.185 598.564 423.536 600.221 424.24 601.688C424.974 603.155 426.03 604.313 427.409 605.164ZM428.637 592.81L428.641 592.8C429.08 591.539 429.682 590.409 430.444 589.412C431.236 588.385 432.175 587.593 433.26 587.036C434.346 586.449 435.534 586.156 436.824 586.156C437.646 586.156 438.35 586.273 438.936 586.508C439.523 586.713 439.978 587.021 440.3 587.432C440.623 587.843 440.784 588.385 440.784 589.06C440.784 589.823 440.521 590.512 439.992 591.128C439.464 591.715 438.599 592.169 437.396 592.492C436.194 592.815 434.551 592.976 432.469 592.976C431.676 592.976 430.826 592.947 429.917 592.888C429.516 592.862 429.089 592.836 428.637 592.81ZM454.333 606.44C452.485 606.44 450.754 606.147 449.141 605.56C447.528 604.973 446.208 604.108 445.181 602.964L447.777 599.884C448.833 600.852 449.948 601.585 451.121 602.084C452.324 602.583 453.57 602.832 454.861 602.832C455.858 602.832 456.724 602.685 457.457 602.392C458.22 602.099 458.806 601.688 459.217 601.16C459.628 600.632 459.833 600.016 459.833 599.312C459.833 598.403 459.452 597.757 458.689 597.376C457.926 596.995 456.768 596.584 455.213 596.144C453.717 595.675 452.485 595.235 451.517 594.824C450.549 594.413 449.83 593.9 449.361 593.284C448.921 592.668 448.701 591.847 448.701 590.82C448.701 589.207 449.141 587.784 450.021 586.552C450.93 585.32 452.148 584.352 453.673 583.648C455.198 582.944 456.914 582.592 458.821 582.592C460.552 582.592 462.062 582.856 463.353 583.384C464.673 583.912 465.788 584.675 466.697 585.672L464.013 588.576C463.192 587.725 462.326 587.109 461.417 586.728C460.537 586.347 459.54 586.156 458.425 586.156C457.457 586.156 456.592 586.288 455.829 586.552C455.096 586.816 454.509 587.212 454.069 587.74C453.658 588.268 453.453 588.913 453.453 589.676C453.453 590.468 453.746 591.04 454.333 591.392C454.92 591.744 455.961 592.125 457.457 592.536C459.041 592.976 460.376 593.445 461.461 593.944C462.546 594.443 463.353 595.044 463.881 595.748C464.438 596.452 464.717 597.376 464.717 598.52C464.717 600.016 464.292 601.365 463.441 602.568C462.59 603.771 461.388 604.724 459.833 605.428C458.278 606.103 456.445 606.44 454.333 606.44ZM477.018 582.988H472.178L467.25 606H472.09L477.018 582.988ZM478.91 573.88H474.07L472.97 579.204H477.81L478.91 573.88ZM484.949 615.812C482.514 615.812 480.578 615.372 479.141 614.492C477.733 613.612 476.633 612.409 475.841 610.884L479.097 608.332C479.684 609.564 480.564 610.503 481.737 611.148C482.91 611.793 484.23 612.116 485.697 612.116C486.929 612.116 488.117 611.867 489.261 611.368C490.405 610.899 491.402 610.151 492.253 609.124C493.133 608.127 493.734 606.865 494.057 605.34L494.761 601.82C493.734 603.199 492.458 604.284 490.933 605.076C489.408 605.839 487.897 606.22 486.401 606.22C484.758 606.22 483.35 605.795 482.177 604.944C481.004 604.093 480.109 602.964 479.493 601.556C478.906 600.148 478.613 598.608 478.613 596.936C478.613 595.029 478.951 593.225 479.625 591.524C480.329 589.793 481.283 588.268 482.485 586.948C483.688 585.599 485.081 584.543 486.665 583.78C488.249 582.988 489.906 582.592 491.637 582.592C493.397 582.592 494.834 583.032 495.949 583.912C497.064 584.792 497.9 585.936 498.457 587.344L499.381 582.988H503.649L498.897 605.34C498.428 607.569 497.504 609.461 496.125 611.016C494.776 612.571 493.133 613.759 491.197 614.58C489.261 615.401 487.178 615.812 484.949 615.812ZM488.821 602.304C489.496 602.304 490.171 602.187 490.845 601.952C491.52 601.688 492.165 601.351 492.781 600.94C493.397 600.5 493.954 600.016 494.453 599.488C494.952 598.931 495.348 598.344 495.641 597.728L496.961 591.7C496.814 590.703 496.492 589.837 495.993 589.104C495.494 588.341 494.878 587.755 494.145 587.344C493.441 586.933 492.664 586.728 491.813 586.728C490.669 586.728 489.613 587.007 488.645 587.564C487.677 588.121 486.812 588.869 486.049 589.808C485.286 590.717 484.685 591.729 484.245 592.844C483.834 593.929 483.629 595.029 483.629 596.144C483.629 597.288 483.849 598.329 484.289 599.268C484.729 600.177 485.33 600.911 486.093 601.468C486.885 602.025 487.794 602.304 488.821 602.304ZM513.702 582.988H509.346L504.418 606H509.258L512.206 592.316C512.734 591.26 513.423 590.336 514.274 589.544C515.124 588.723 516.019 588.077 516.958 587.608C517.926 587.139 518.835 586.904 519.686 586.904C520.595 586.904 521.284 587.183 521.754 587.74C522.252 588.268 522.502 589.119 522.502 590.292C522.502 590.703 522.472 591.143 522.414 591.612C522.355 592.052 522.267 592.551 522.15 593.108L519.422 606H524.262L527.21 591.964C527.356 591.26 527.474 590.571 527.562 589.896C527.679 589.221 527.738 588.576 527.738 587.96C527.738 586.933 527.576 586.024 527.254 585.232C526.931 584.411 526.403 583.765 525.67 583.296C524.936 582.827 523.924 582.592 522.634 582.592C521.372 582.592 520.126 582.797 518.894 583.208C517.662 583.619 516.518 584.205 515.462 584.968C514.406 585.701 513.496 586.581 512.734 587.608L513.702 582.988ZM539.759 606.44C537.823 606.44 536.166 606.015 534.787 605.164C533.409 604.313 532.353 603.155 531.619 601.688C530.915 600.221 530.563 598.564 530.563 596.716C530.563 594.809 530.915 593.02 531.619 591.348C532.323 589.647 533.321 588.136 534.611 586.816C535.902 585.496 537.398 584.469 539.099 583.736C540.83 582.973 542.707 582.592 544.731 582.592C546.315 582.592 547.694 582.841 548.867 583.34C550.07 583.809 550.994 584.513 551.639 585.452C552.314 586.361 552.651 587.52 552.651 588.928C552.651 591.275 551.581 593.064 549.439 594.296C547.327 595.528 544.101 596.144 539.759 596.144C538.938 596.144 538.014 596.129 536.987 596.1C536.497 596.072 535.977 596.037 535.426 595.996C535.411 596.263 535.403 596.532 535.403 596.804C535.403 597.919 535.579 598.945 535.931 599.884C536.313 600.793 536.885 601.527 537.647 602.084C538.439 602.612 539.422 602.876 540.595 602.876C541.857 602.876 543.074 602.568 544.247 601.952C545.421 601.307 546.345 600.441 547.019 599.356L550.847 600.544C550.114 601.688 549.161 602.715 547.987 603.624C546.814 604.504 545.509 605.193 544.071 605.692C542.663 606.191 541.226 606.44 539.759 606.44ZM536.019 592.8L536.016 592.81C536.468 592.836 536.895 592.862 537.295 592.888C538.205 592.947 539.055 592.976 539.847 592.976C541.93 592.976 543.573 592.815 544.775 592.492C545.978 592.169 546.843 591.715 547.371 591.128C547.899 590.512 548.163 589.823 548.163 589.06C548.163 588.385 548.002 587.843 547.679 587.432C547.357 587.021 546.902 586.713 546.315 586.508C545.729 586.273 545.025 586.156 544.203 586.156C542.913 586.156 541.725 586.449 540.639 587.036C539.554 587.593 538.615 588.385 537.823 589.412C537.061 590.409 536.459 591.539 536.019 592.8ZM563.076 582.988H558.588L553.66 606H558.5L561.492 591.92C562.401 590.424 563.633 589.265 565.188 588.444C566.743 587.623 568.385 587.197 570.116 587.168L571.04 582.944C570.923 582.915 570.776 582.9 570.6 582.9C570.524 582.887 570.436 582.877 570.338 582.87C570.259 582.864 570.173 582.86 570.079 582.858C570.021 582.857 569.96 582.856 569.896 582.856C568.517 582.856 567.124 583.34 565.716 584.308C564.308 585.276 563.047 586.552 561.932 588.136L563.076 582.988Z" fill="url(#paint0_linear_522_59)"/>
<defs>
<linearGradient id="paint0_linear_522_59" x1="-3.13475e-05" y1="210" x2="786.726" y2="372.835" gradientUnits="userSpaceOnUse">
<stop stop-color="#FFB147"/>
<stop offset="0.520264" stop-color="#FF6C63"/>
<stop offset="1" stop-color="#B86ADF"/>
</linearGradient>
</defs>
</svg>
