<svg width="768" height="635" viewBox="0 0 768 635" fill="none" xmlns="http://www.w3.org/2000/svg">
<path d="M455.934 141.778C474.97 144.633 492.909 150.842 509.13 159.784L605 0H541L455.934 141.778Z" fill="black"/>
<path d="M80 635H144L393.6 219H432C485.018 219.002 527.997 261.982 527.997 315C527.997 368.018 485.018 410.998 432 411H358.4L461.271 239.547C452.043 236.596 442.208 235.002 432 235.002L400 235L256 475H432C520.365 475 592 403.365 592 315C592 226.635 520.365 155 432 155H368L304 261.667L240 155H176L272 315L80 635Z" fill="black"/>
<path d="M96 155L0 315L96 475H160L64 315L160 155H96Z" fill="black"/>
<path d="M608 155H672L768 315L672 475H608L704 315L608 155Z" fill="black"/>
</svg>
