<svg width="550" height="320" viewBox="0 0 550 320" fill="none" xmlns="http://www.w3.org/2000/svg">
<path d="M26 1.52588e-05L122 160L26 320H10L106 160L10 1.52588e-05H26Z" fill="white" fill-opacity="0.4"/>
<path d="M198 0L262 106.667L326 0H390C478.365 0 550 71.6346 550 160C550 248.366 478.365 320 390 320H214L358 80L390 80.0024C400.208 80.0024 410.043 81.5957 419.271 84.5471L316.4 256H390C443.018 255.998 485.997 213.018 485.997 160C485.997 106.982 443.018 64.0024 390 64H351.6L198 320H134L230 160L134 0H198Z" fill="white"/>
<path d="M62 3.05176e-05L158 160L62 320H30L126 160L30 3.05176e-05H62Z" fill="white" fill-opacity="0.6"/>
<path d="M118 3.05176e-05L214 160L118 320H70L166 160L70 3.05176e-05H118Z" fill="white" fill-opacity="0.8"/>
<path d="M8 1.52588e-05L104 160L8 320L0 320L96 160L0 1.52588e-05H8Z" fill="white" fill-opacity="0.2"/>
</svg>
