<svg width="782" height="648" viewBox="0 0 782 648" fill="none" xmlns="http://www.w3.org/2000/svg">
<path d="M578.047 193.517C539.665 162.749 498.611 157.598 482.285 156.447C452.808 156.316 423.338 156.193 393.86 156.061C370.692 194.158 347.524 232.262 324.355 270.358C300.932 232.262 277.501 194.158 254.078 156.061H188.435C222.855 211.997 257.276 267.933 291.696 323.869C257.407 379.781 223.118 435.694 188.821 491.614H253.692C311.999 396.756 370.306 301.89 428.612 207.031H433.246C435.045 207.031 436.853 207.031 438.652 207.031C439.942 207.031 441.224 207.031 442.513 207.031H454.87C486.162 207.055 505.84 213.21 505.84 213.21C521.2 218.029 531.618 224.632 534.8 226.724C537.488 228.493 546.237 234.447 555.652 244.487C560.633 249.8 576.055 267.207 583.453 291.595C593.555 324.888 586.828 365.016 563.374 395.08C539.727 425.392 507.57 434.435 497.731 436.783C485.189 439.772 474.354 440.119 466.84 439.872C433.501 439.741 400.17 439.617 366.83 439.486C411.368 366.892 455.897 294.298 500.434 221.705C499.654 221.542 498.287 221.257 496.573 220.932C489.236 219.527 477.636 217.357 463.365 217.071C463.365 217.071 462.662 217.071 461.256 217.071C459.125 217.071 456.993 217.071 454.87 217.071C453.997 217.071 440.498 217.071 437.88 217.071C382.145 308.585 326.417 400.1 270.682 491.614C339.67 491.614 408.665 491.614 477.652 491.614C480.37 491.53 484.394 491.344 489.236 490.842C533.889 486.247 564.996 464.098 572.642 458.407C599.015 438.768 613.75 415.684 621.295 401.258C635.188 374.692 638.717 350.736 639.829 338.704C643.459 299.341 632.122 269.338 627.473 258.388C623.079 248.039 609.325 218.585 578.047 193.517Z" fill="white"/>
<path d="M103.037 491.614H167.908L65.0332 323.869L168.294 156.061H102.651L33.9183 268.813L0 323.838L103.037 491.614Z" fill="white"/>
<path d="M678.049 491.583H613.178L716.045 323.845L612.792 156.03H678.435L747.168 268.782L781.086 323.807L678.049 491.583Z" fill="white"/>
<path d="M157.552 648H92.6807L195.555 480.254H260.565L157.552 648Z" fill="white"/>
<path d="M538.708 159.351C536.314 158.393 533.07 157.135 529.186 155.729C525.541 154.416 522.923 153.466 519.324 152.377C513.316 150.555 508.489 149.505 506.11 149.026C501.338 148.053 497.476 147.528 495.268 147.25C490.333 146.639 485.823 146.354 481.853 146.246C511.748 97.4996 541.643 48.746 571.537 0H636.555C603.934 53.117 571.321 106.226 538.7 159.343L538.708 159.351Z" fill="white"/>
</svg>
