<svg width="40" height="40" viewBox="0 0 40 40" fill="none" xmlns="http://www.w3.org/2000/svg">
<circle cx="20" cy="20" r="20" fill="#FFF"/>
<path fill-rule="evenodd" clip-rule="evenodd" d="M13.3333 14.1667C13.3333 13.7065 13.7064 13.3334 14.1666 13.3334H25.8333C26.2935 13.3334 26.6666 13.7065 26.6666 14.1667V25.8334C26.6666 26.2937 26.2935 26.6667 25.8333 26.6667L25 26.6667C25 24.3656 23.1345 22.5001 20.8333 22.5001H19.1666C16.8654 22.5001 15 24.3656 15 26.6667L14.1666 26.6667C13.7064 26.6667 13.3333 26.2937 13.3333 25.8334V14.1667ZM16.6666 26.6667H23.3333C23.3333 25.286 22.214 24.1667 20.8333 24.1667H19.1666C17.7859 24.1667 16.6666 25.286 16.6666 26.6667ZM14.1666 11.6667C12.7859 11.6667 11.6666 12.786 11.6666 14.1667V25.8334C11.6666 27.2141 12.7859 28.3334 14.1666 28.3334H20H25.8333C27.214 28.3334 28.3333 27.2141 28.3333 25.8334V14.1667C28.3333 12.786 27.214 11.6667 25.8333 11.6667H14.1666ZM18.3333 18.3334C18.3333 19.2539 19.0795 20.0001 20 20.0001C20.9204 20.0001 21.6666 19.2539 21.6666 18.3334C21.6666 17.4129 20.9204 16.6667 20 16.6667C19.0795 16.6667 18.3333 17.4129 18.3333 18.3334ZM20 15.0001C18.159 15.0001 16.6666 16.4925 16.6666 18.3334C16.6666 20.1744 18.159 21.6667 20 21.6667C21.8409 21.6667 23.3333 20.1744 23.3333 18.3334C23.3333 16.4925 21.8409 15.0001 20 15.0001Z" fill="#141313"/>
</svg>
