<svg width="40" height="40" viewBox="0 0 40 40" fill="none" xmlns="http://www.w3.org/2000/svg">
<circle cx="20" cy="20" r="20" fill="#FFF"/>
<path fill-rule="evenodd" clip-rule="evenodd" d="M14.1666 13.3333C12.7859 13.3333 11.6666 14.4525 11.6666 15.8333V24.1666C11.6666 25.5473 12.7859 26.6666 14.1666 26.6666H25.8333C27.214 26.6666 28.3333 25.5473 28.3333 24.1666V15.8333C28.3333 14.4525 27.214 13.3333 25.8333 13.3333H14.1666ZM13.4094 15.4849C13.5413 15.1986 13.8308 14.9999 14.1666 14.9999H25.8333C26.1692 14.9999 26.4586 15.1986 26.5905 15.4849L20.5116 20.2129C20.2106 20.447 19.7893 20.447 19.4883 20.2129L13.4094 15.4849ZM13.3333 17.5371V22.3874L16.3438 19.8786L13.3333 17.5371ZM13.4024 24.4993C13.5308 24.794 13.8247 24.9999 14.1666 24.9999H25.8333C26.1752 24.9999 26.4691 24.794 26.5975 24.4993L22.3095 20.926L21.5348 21.5285C20.632 22.2307 19.3679 22.2307 18.4651 21.5285L17.6904 20.926L13.4024 24.4993ZM26.6666 22.3874V17.5371L23.6561 19.8786L26.6666 22.3874Z" fill="#141313"/>
</svg>
