<svg width="40" height="40" viewBox="0 0 40 40" fill="none" xmlns="http://www.w3.org/2000/svg">
<circle cx="20" cy="20" r="20" fill="#FFF"/>
<path fill-rule="evenodd" clip-rule="evenodd" d="M14.1074 13.6907C15.5718 12.2262 17.9462 12.2262 19.4107 13.6907C20.8751 15.1552 20.8751 17.5295 19.4107 18.994C18.8656 19.5391 18.1944 19.8813 17.491 20.0206L19.5626 22.0922C19.7019 21.3888 20.0441 20.7176 20.5892 20.1725C22.0537 18.7081 24.428 18.7081 25.8925 20.1725C27.357 21.637 27.357 24.0114 25.8925 25.4758C24.5276 26.8407 22.3724 26.9335 20.9 25.7543L20.8838 25.7705L20.5892 25.4758L14.1074 18.994L13.8128 18.6994L13.8289 18.6832C12.6497 17.2108 12.7425 15.0556 14.1074 13.6907ZM21.7677 24.2973C22.5813 25.1109 23.9004 25.1109 24.714 24.2973C25.5276 23.4837 25.5276 22.1646 24.714 21.351C23.9004 20.5374 22.5813 20.5374 21.7677 21.351C20.9541 22.1646 20.9541 23.4837 21.7677 24.2973ZM18.2322 17.8155C17.4186 18.6291 16.0995 18.6291 15.2859 17.8155C14.4723 17.0019 14.4723 15.6828 15.2859 14.8692C16.0995 14.0556 17.4186 14.0556 18.2322 14.8692C19.0458 15.6828 19.0458 17.0019 18.2322 17.8155Z" fill="#141313"/>
</svg>
