<svg width="40" height="40" viewBox="0 0 40 40" fill="none" xmlns="http://www.w3.org/2000/svg">
<circle cx="20" cy="20" r="20" fill="#FFF"/>
<path fill-rule="evenodd" clip-rule="evenodd" d="M23.5844 19.8795L20 25.7918L16.4156 19.8795C14.6771 17.0118 16.697 13.3092 20 13.3092C23.303 13.3092 25.3229 17.0118 23.5844 19.8795ZM15.048 20.744C12.6461 16.7821 15.4368 11.6667 20 11.6667C24.5633 11.6667 27.3539 16.7821 24.952 20.744L20.5356 28.0288C20.2893 28.435 19.7107 28.435 19.4644 28.0288L15.048 20.744ZM20.0002 15.7728C19.1118 15.7728 18.3917 16.5081 18.3917 17.4152C18.3917 18.3223 19.1118 19.0577 20.0002 19.0577C20.8885 19.0577 21.6087 18.3223 21.6087 17.4152C21.6087 16.5081 20.8885 15.7728 20.0002 15.7728Z" fill="black"/>
</svg>
