<svg width="48" height="38" viewBox="0 0 48 38" fill="none" xmlns="http://www.w3.org/2000/svg">
<path d="M4.22154 34.1892C1.47487 31.2719 0.000207936 27.9999 0.000208399 22.6959C0.000209215 13.3626 6.55221 4.99725 16.0802 0.861248L18.4615 4.53592C9.56821 9.34658 7.82954 15.5892 7.13621 19.5252C8.56821 18.7839 10.4429 18.5252 12.2802 18.6959C17.0909 19.1412 20.8829 23.0906 20.8829 27.9999C20.8829 30.4753 19.8995 32.8492 18.1492 34.5996C16.3989 36.3499 14.0249 37.3332 11.5495 37.3332C8.68821 37.3332 5.95221 36.0266 4.22154 34.1892ZM30.8882 34.1893C28.1415 31.2719 26.6669 27.9999 26.6669 22.6959C26.6669 13.3626 33.2189 4.99725 42.7469 0.86125L45.1282 4.53592C36.2349 9.34658 34.4962 15.5892 33.8029 19.5252C35.2349 18.7839 37.1095 18.5252 38.9469 18.6959C43.7575 19.1413 47.5469 23.0906 47.5469 27.9999C47.5469 30.4753 46.5635 32.8492 44.8132 34.5996C43.0629 36.3499 40.6889 37.3333 38.2135 37.3333C35.3522 37.3333 32.6162 36.0266 30.8855 34.1893L30.8882 34.1893Z" fill="#3a3a3a"/>
</svg>
